<?xml version="1.0" encoding="utf-8"?>
<!-- Uploaded to: SVG Repo, www.svgrepo.com, Generator: SVG Repo Mixer Tools -->
<svg fill="#000000" width="800px" height="800px" viewBox="-7 0 32 32" version="1.1" xmlns="http://www.w3.org/2000/svg">
<title>location-arrow</title>
<path d="M10.2 25.080c0 0-0.040 0-0.040 0-0.36-0.040-0.64-0.28-0.76-0.6l-1.96-6.84-6.84-1.96c-0.32-0.080-0.56-0.4-0.6-0.76s0.16-0.68 0.48-0.8l16.52-7.12c0.32-0.12 0.68-0.080 0.92 0.16s0.32 0.6 0.16 0.92l-7.12 16.48c-0.12 0.32-0.44 0.52-0.76 0.52zM3.28 14.72l5.080 1.44c0.28 0.080 0.48 0.28 0.56 0.56l1.44 5.080 5.4-12.44-12.48 5.36z"></path>
</svg>